<svg data-name="Layer 1" xmlns="http://www.w3.org/2000/svg" viewBox="0 0 574.26 195.25"><defs><linearGradient id="a" x1="-952.8" y1="-145.22" x2="-544.75" y2="262.84" gradientTransform="translate(987.17)" gradientUnits="userSpaceOnUse"><stop offset="0" stop-color="#3bc3df"/><stop offset="1" stop-color="#53489d"/></linearGradient></defs><path d="M168.17 49.1L168 49l-26.71-15.59L124.64 27l-13.72-11.29L84.09 0 57.25 15.71 43.54 27l-16.66 6.41L.14 49l-.14.1.09 29.22L3 97.62.09 116.93 0 146.15l.14.08 26.74 15.61 16.65 6.37 13.72 11.33 26.83 15.71 26.83-15.71 13.72-11.33 16.65-6.37L168 146.23l.14-.08-.09-29.22-3-19.31 3-19.31zm-28.75-11.85l22.32 13.06-36.8 21-5.06-31.77 4.62-8zm-13.94 58.21V79.23l19.69 16.23zm19.69 4.32L125.48 116V99.79zm-28.64-54.47l3.93 25.24-13.91-8zm-13.7 15.06l-14.06-8.12 24.06-9.12zM86.24 6.24l22.48 13.12 12.11 10-4.7 8.09-29.9 11zm-26.8 13.13L81.93 6.24v42.23L52 37.43l-4.7-8.09zm-4.1 23.77l24.06 9.11-14.06 8.12zm6.28 19.38l-13.91 8 3.93-25.24zM28.75 37.25l14.93-5.68 4.62 8-5.07 31.74-36.8-21zM23 95.46l19.7-16.23v16.23zm19.7 4.33V116L23 99.79zM41.07 75L16.26 95.46H7L4.35 78 4.3 54zM4.35 117.26L7 99.79h9.21l24.81 20.45-36.77 21zM28.75 158L6.43 144.93l36.8-21 5.06 31.77-4.62 8zm22.89-8.05l-3.93-25.25 13.91 8zm13.7-15.06L79.4 143l-24.06 9.12zM81.93 189l-22.49-13.12-12.11-10 4.7-8.09 29.9-11zM47 119.33V75.92l37.1-21.41 37.1 21.41v43.41l-37.1 21.41zm59.56 13.41l13.91-8-3.93 25.24zm6.28 19.38L88.77 143l14.06-8.12zm-4.1 23.77L86.24 189v-42.22l29.9 11 4.7 8.09zM139.42 158l-14.93 5.68-4.62-8 5.06-31.77 36.8 21zm-12.32-37.76l24.81-20.45h9.21l2.7 17.48v23.94zM163.82 78l-2.7 17.48h-9.21L127.1 75l36.77-21zm142.73-24.75l-23 50.93-.22.49h6.58l6-13.31h27l5.81 13.1.09.2h6.87l-23.36-51.41zm-8.16 32.31l11-24.49 10.91 24.49zm-32.18 19.11h6.37V53.62h-6.37zm242.55-11.35l-31.11-39.57-.11-.13-5.84 3.87v47.18h6.23V64l31.9 40.52.11.13 5-3.8V53.62h-6.23zm62.05-1.4a25.88 25.88 0 002.54-6 24.85 24.85 0 000-13.31 25.85 25.85 0 00-2.54-6 24.73 24.73 0 00-3.93-5.07 25.93 25.93 0 00-5.1-3.94 24.6 24.6 0 00-6-2.54 25 25 0 00-6.68-.89h-19v14.47l4.49 10.25-4.53 9.68v15.72h19a25.13 25.13 0 0012.68-3.41 25.59 25.59 0 005.15-3.88 24.78 24.78 0 003.93-5.07zm-8.37.68a19.17 19.17 0 01-6 4 18.5 18.5 0 01-7.32 1.48h-12.8v-9.59l4.56-9.58-4.55-10.13v-8.31h12.8a18.4 18.4 0 017.31 1.53 19.46 19.46 0 016 4 19.06 19.06 0 014.06 6 18.72 18.72 0 010 14.66 19.11 19.11 0 01-4.05 5.94zm-192.2-11.78l-18.16-27.2-6.28 3.88v47.17h6.2V64.72l17.71 26 .1.15h.66l17.82-26.2v40h6.38V57.48l-6.28-3.87zm63-28.07c-14.64 0-26.1 11.62-26.1 26.46 0 15 11.16 26.32 26 26.32 14.64 0 26.1-11.62 26.1-26.46-.01-15-11.17-26.32-25.97-26.32zm0 46.84c-11.12 0-19.51-8.82-19.51-20.52s8.32-20.38 19.37-20.38 19.51 8.82 19.51 20.52-8.29 20.38-19.34 20.38zm-182.79-7.66a25.87 25.87 0 002.54-6 24.85 24.85 0 000-13.31 25.86 25.86 0 00-2.54-6 24.73 24.73 0 00-3.93-5.07 25.93 25.93 0 00-5.1-3.94 24.6 24.6 0 00-6-2.54 25 25 0 00-6.68-.89h-19v14.47l4.16 10.25-4.21 9.68v15.72h19a25.13 25.13 0 0012.68-3.41 25.6 25.6 0 005.14-3.89 24.78 24.78 0 003.94-5.07zm-8.37.68a19.16 19.16 0 01-6 4 18.5 18.5 0 01-7.32 1.48h-12.8v-9.6l4.24-9.58-4.23-10.13v-8.31h12.8a18.41 18.41 0 017.3 1.53 19.46 19.46 0 016 4 19.06 19.06 0 014.06 6 18.72 18.72 0 010 14.66 19.1 19.1 0 01-4.05 5.94zm221.85 48.69h1.7v-15.08h-1.7zm14.29-6.83h8.23v-1.55h-8.23v-5.15h9.2v-1.55h-10.9v15.08h11v-1.55h-9.31zm30.3 3.83L499 126.22h-1.59v15.08h1.66v-12.37l9.74 12.37h1.36v-15.08h-1.66zm19.32 1.7a6.24 6.24 0 010-12.45 6.56 6.56 0 014.74 2.07l1.16-1.25a7.85 7.85 0 00-5.88-2.39 7.8 7.8 0 00-.06 15.6 7.85 7.85 0 006-2.65l-1.12-1.1a6.55 6.55 0 01-4.84 2.17zm41.75-7c-3.32-.71-4.09-1.51-4.09-3s1.25-2.46 3.21-2.46a6.63 6.63 0 014.35 1.64l1-1.31a7.87 7.87 0 00-5.3-1.85c-2.87 0-5 1.72-5 4.14s1.59 3.62 5.06 4.37c3.17.67 3.92 1.47 3.92 2.89s-1.34 2.58-3.36 2.58a7.18 7.18 0 01-5.17-2.13l-1.06 1.25a8.83 8.83 0 006.16 2.41c3 0 5.15-1.68 5.15-4.29.04-2.34-1.46-3.57-4.87-4.3zM253 134.77h4.59v3.75a7.11 7.11 0 01-4.35 1.51c-3.66 0-6-2.67-6-6.29 0-3.38 2.39-6.21 5.73-6.21a6.42 6.42 0 014.59 1.72l1.1-1.29a8 8 0 00-5.62-2 7.57 7.57 0 00-7.56 7.82 7.4 7.4 0 007.67 7.78 9.14 9.14 0 006.05-2.31v-6H253zm292-.3h8.23v-1.55H545v-5.15h9.2v-1.55h-10.9v15.08h11v-1.55H545zm-275.34 6.83h1.7v-15.08h-1.7zm-54.33-15.08h-5.24v15.08h5.24c4.74 0 8-3.3 8-7.56s-3.26-7.52-8-7.52zm0 13.51h-3.53v-11.94h3.53a5.87 5.87 0 016.25 6c0 3.35-2.44 5.94-6.25 5.94zm110.6-13.51h-1.7v15.08h10.19v-1.57h-8.49zm32.74 8.25h8.23v-1.55h-8.23v-5.15h9.2v-1.55H357v15.08h11v-1.55h-9.31zm-52.35-8.36l-6.87 15.19h1.75l1.79-4h8.21l1.77 4h1.83l-6.87-15.19zm-2.67 9.67l3.45-7.69 3.43 7.69zm-22.48-8h5.06v13.52H288v-13.51h5v-1.57h-11.83zm-47.61 13.52h1.7v-15.08h-1.7zm156.59-15.08h-2l-4.59 6.16-4.63-6.16h-2l5.58 7.39-5.8 7.69h2l4.83-6.49 4.83 6.49h2l-5.79-7.71zm32.37 8.25h8.23v-1.55h-8.23v-5.15h9.2v-1.55h-10.9v15.08h11v-1.55h-9.31zm-16.92-8.25H400v15.08h1.7V136h3.66c3.21 0 5.92-1.68 5.92-5-.03-3-2.28-4.78-5.67-4.78zm-.22 8.21h-3.73v-6.64h3.81c2.43 0 4.05 1.12 4.05 3.3.02 2-1.62 3.34-4.12 3.34zm48.27-3.71c0-2.71-2.13-4.5-5.45-4.5h-6.49v15.08h1.7v-5.86h4.31l4.37 5.86h2.09l-4.63-6.16c2.39-.43 4.11-1.9 4.11-4.42zm-10.23 3.19v-6.12h4.65c2.43 0 3.86 1.12 3.86 3s-1.62 3.12-3.88 3.12z" fill="url(#a)"/></svg>