<svg xmlns="http://www.w3.org/2000/svg" width="72" height="72" viewBox="0 0 72 72">
    <path fill="#fff" fill-rule="evenodd" d="M35.111 23c6.689 0 12.111 5.422 12.111 12.111 0 2.985-1.08 5.717-2.87 7.828l5.355 5.354a1 1 0 0 1-1.414 1.414l-5.354-5.354a12.063 12.063 0 0 1-7.828 2.87C28.422 47.222 23 41.8 23 35.11S28.422 23 35.111 23zm0 2C29.527 25 25 29.527 25 35.111c0 5.584 4.527 10.111 10.111 10.111 2.74 0 5.226-1.09 7.047-2.86a1.008 1.008 0 0 1 .203-.206 10.066 10.066 0 0 0 2.861-7.045c0-5.584-4.527-10.111-10.11-10.111z"/>
</svg>
